%TF.GenerationSoftware,Altium Limited,Altium Designer,24.10.1 (45)*%
G04 Layer_Color=8388736*
%FSLAX45Y45*%
%MOMM*%
%TF.SameCoordinates,4467BDBC-AEE5-4BB1-B835-3B9CE31773A1*%
%TF.FilePolarity,Negative*%
%TF.FileFunction,Soldermask,Top*%
%TF.Part,Single*%
G01*
G75*
%TA.AperFunction,SMDPad,CuDef*%
%ADD14R,0.52000X0.52000*%
G04:AMPARAMS|DCode=15|XSize=1.95524mm|YSize=0.42077mm|CornerRadius=0.21038mm|HoleSize=0mm|Usage=FLASHONLY|Rotation=0.000|XOffset=0mm|YOffset=0mm|HoleType=Round|Shape=RoundedRectangle|*
%AMROUNDEDRECTD15*
21,1,1.95524,0.00000,0,0,0.0*
21,1,1.53447,0.42077,0,0,0.0*
1,1,0.42077,0.76723,0.00000*
1,1,0.42077,-0.76723,0.00000*
1,1,0.42077,-0.76723,0.00000*
1,1,0.42077,0.76723,0.00000*
%
%ADD15ROUNDEDRECTD15*%
%ADD16R,1.95524X0.42077*%
%TA.AperFunction,ConnectorPad*%
%ADD19R,0.67248X0.66817*%
%TA.AperFunction,SMDPad,CuDef*%
%ADD20R,0.50000X0.60000*%
%ADD21R,0.47247X0.46818*%
%ADD22R,0.67248X0.66817*%
%TA.AperFunction,ConnectorPad*%
%ADD37R,0.73320X1.51320*%
%ADD38R,0.90320X1.20320*%
%TA.AperFunction,SMDPad,CuDef*%
G04:AMPARAMS|DCode=39|XSize=0.6532mm|YSize=1.2532mm|CornerRadius=0.1511mm|HoleSize=0mm|Usage=FLASHONLY|Rotation=180.000|XOffset=0mm|YOffset=0mm|HoleType=Round|Shape=RoundedRectangle|*
%AMROUNDEDRECTD39*
21,1,0.65320,0.95100,0,0,180.0*
21,1,0.35100,1.25320,0,0,180.0*
1,1,0.30220,-0.17550,0.47550*
1,1,0.30220,0.17550,0.47550*
1,1,0.30220,0.17550,-0.47550*
1,1,0.30220,-0.17550,-0.47550*
%
%ADD39ROUNDEDRECTD39*%
%TA.AperFunction,ViaPad*%
%ADD40C,2.20320*%
%TA.AperFunction,ComponentPad*%
%ADD41C,1.25320*%
%ADD42R,1.25320X1.25320*%
%TA.AperFunction,ViaPad*%
%ADD43C,0.70320*%
D14*
X2616200Y3634100D02*
D03*
Y3554100D02*
D03*
Y3811900D02*
D03*
Y3731900D02*
D03*
X3492500Y4049400D02*
D03*
Y4129400D02*
D03*
X2641600Y3020700D02*
D03*
Y3100700D02*
D03*
Y2921000D02*
D03*
Y2841000D02*
D03*
D15*
X3399048Y3899300D02*
D03*
Y3834300D02*
D03*
Y3769300D02*
D03*
Y3704300D02*
D03*
Y3639300D02*
D03*
Y3574300D02*
D03*
Y3509300D02*
D03*
Y3444300D02*
D03*
Y3379300D02*
D03*
Y3314300D02*
D03*
X2823952D02*
D03*
Y3379300D02*
D03*
Y3444300D02*
D03*
Y3509300D02*
D03*
Y3574300D02*
D03*
Y3639300D02*
D03*
Y3704300D02*
D03*
Y3769300D02*
D03*
Y3834300D02*
D03*
D16*
Y3899300D02*
D03*
D19*
X2616200Y3340685D02*
D03*
Y3441115D02*
D03*
D20*
X2882900Y4127500D02*
D03*
X2782900D02*
D03*
X2782100Y4013200D02*
D03*
X2882100D02*
D03*
D21*
X3022600Y2855385D02*
D03*
Y2935815D02*
D03*
X3175000Y2855385D02*
D03*
Y2935815D02*
D03*
D22*
X3022600Y3048585D02*
D03*
Y3149015D02*
D03*
X3175000Y3048585D02*
D03*
Y3149015D02*
D03*
D37*
X3000200Y4260200D02*
D03*
X3125200D02*
D03*
X3250200D02*
D03*
X3375200D02*
D03*
Y4020200D02*
D03*
X3250200D02*
D03*
X3125200D02*
D03*
X3000200D02*
D03*
D38*
X3295900Y2902600D02*
D03*
X3485900D02*
D03*
X3390900Y3142600D02*
D03*
D39*
X2754400Y2874700D02*
D03*
X2819400D02*
D03*
X2884400D02*
D03*
Y3119700D02*
D03*
X2754400D02*
D03*
D40*
X3454400Y2641600D02*
D03*
X2628900Y4267200D02*
D03*
D41*
X3073400Y2692400D02*
D03*
X2946400D02*
D03*
X2819400D02*
D03*
D42*
X2692400D02*
D03*
D43*
X3454400Y3987800D02*
D03*
X3492500Y4216400D02*
D03*
X2718013Y4064002D02*
D03*
X3314700Y4013200D02*
D03*
X3289349Y2844710D02*
D03*
X2603500Y3948192D02*
D03*
X2684388Y3861600D02*
D03*
X3086100Y3746500D02*
D03*
X3229549Y3893100D02*
D03*
X3213100Y3641600D02*
D03*
X3238500Y3340100D02*
D03*
X3388161Y3225020D02*
D03*
X2692400Y3632200D02*
D03*
X2696729Y3486854D02*
D03*
X3009900Y3289300D02*
D03*
X2616200Y3505200D02*
D03*
X2641600Y2971800D02*
D03*
X2908300Y2984500D02*
D03*
X2819400D02*
D03*
X2730305Y3250467D02*
D03*
X3098800Y3213100D02*
D03*
X3378200Y2870200D02*
D03*
X3111500Y2844800D02*
D03*
X2959100D02*
D03*
%TF.MD5,88b92b6ab052d1387b018625d1765f43*%
M02*
