%TF.GenerationSoftware,Altium Limited,Altium Designer,24.10.1 (45)*%
G04 Layer_Color=32896*
%FSLAX45Y45*%
%MOMM*%
%TF.SameCoordinates,4467BDBC-AEE5-4BB1-B835-3B9CE31773A1*%
%TF.FilePolarity,Positive*%
%TF.FileFunction,Legend,Bot*%
%TF.Part,Single*%
G01*
G75*
%TA.AperFunction,NonConductor*%
%ADD31C,0.25400*%
%ADD34C,0.10000*%
%ADD36C,0.20000*%
D31*
X3454400Y4220361D02*
Y4287006D01*
X3421077Y4320329D01*
X3387755Y4287006D01*
Y4220361D01*
Y4270345D01*
X3454400D01*
X3354432Y4320329D02*
X3287787D01*
X3321110D01*
Y4220361D01*
X3254464Y4320329D02*
X3187819D01*
X3221142D01*
Y4220361D01*
X3104513Y4320329D02*
X3137835D01*
X3154497Y4303668D01*
Y4237023D01*
X3137835Y4220361D01*
X3104513D01*
X3087852Y4237023D01*
Y4303668D01*
X3104513Y4320329D01*
X3054529Y4203700D02*
X2987884D01*
X2954561Y4320329D02*
Y4220361D01*
X2904577D01*
X2887916Y4237023D01*
Y4303668D01*
X2904577Y4320329D01*
X2954561D01*
X2854593D02*
Y4220361D01*
X2804609D01*
X2787948Y4237023D01*
Y4303668D01*
X2804609Y4320329D01*
X2854593D01*
D34*
X2721800Y4161600D02*
X3091800D01*
X2721800Y3851600D02*
Y4161600D01*
X3221800Y3851600D02*
Y4011600D01*
X2721800Y3661600D02*
X3221800D01*
D36*
X3306849Y2691710D02*
Y2825710D01*
X3179849Y2691710D02*
Y2825710D01*
X3370800Y3401300D02*
Y3431300D01*
X3080800D02*
X3370800D01*
X3080800Y3401300D02*
Y3431300D01*
Y3401300D02*
X3370800D01*
X3379300Y3256300D02*
Y3366300D01*
X2574100Y3314576D02*
Y3441824D01*
X2709100Y3314576D02*
Y3441824D01*
X2942400Y3314576D02*
Y3441824D01*
X3077400Y3314576D02*
Y3441824D01*
X2595700Y3054100D02*
Y3114100D01*
Y3054100D02*
X2890700D01*
Y3114100D01*
X2595700D02*
X2890700D01*
X2593200Y3149100D02*
Y3269100D01*
X2964000Y3041400D02*
Y3101400D01*
Y3041400D02*
X3259000D01*
Y3101400D01*
X2964000D02*
X3259000D01*
X2961500Y3136400D02*
Y3256400D01*
%TF.MD5,ab99a90b5a1d7b4bb6759dc142b742ea*%
M02*
