%TF.GenerationSoftware,Altium Limited,Altium Designer,24.10.1 (45)*%
G04 Layer_Physical_Order=3*
G04 Layer_Color=16440176*
%FSLAX45Y45*%
%MOMM*%
%TF.SameCoordinates,4467BDBC-AEE5-4BB1-B835-3B9CE31773A1*%
%TF.FilePolarity,Positive*%
%TF.FileFunction,Copper,L3,Inr,Signal*%
%TF.Part,Single*%
G01*
G75*
%TA.AperFunction,ViaPad*%
%ADD23C,2.00000*%
%TA.AperFunction,ComponentPad*%
%ADD24C,1.05000*%
%ADD25R,1.05000X1.05000*%
%TA.AperFunction,ViaPad*%
%ADD26C,0.50000*%
G36*
X3469169Y4348857D02*
X3487368Y4341319D01*
X3503746Y4330375D01*
X3517675Y4316446D01*
X3528619Y4300068D01*
X3536157Y4281869D01*
X3540000Y4262549D01*
Y4258137D01*
X3527300Y4252876D01*
X3521049Y4259127D01*
X3505200Y4265692D01*
Y4216400D01*
Y4167108D01*
X3521049Y4173673D01*
X3527300Y4179924D01*
X3540000Y4174663D01*
Y2742299D01*
X3533984Y2739807D01*
X3527300Y2738075D01*
X3500718Y2753422D01*
X3470198Y2761600D01*
X3438602D01*
X3408082Y2753422D01*
X3380718Y2737624D01*
X3358376Y2715282D01*
X3342578Y2687918D01*
X3334400Y2657398D01*
Y2625802D01*
X3342578Y2595282D01*
X3358376Y2567918D01*
X3361861Y2564433D01*
X3357001Y2552700D01*
X2630151D01*
X2610831Y2556543D01*
X2592632Y2564081D01*
X2576254Y2575025D01*
X2562325Y2588954D01*
X2551381Y2605332D01*
X2543843Y2623531D01*
X2540000Y2642851D01*
Y2652700D01*
Y4169801D01*
X2551733Y4174661D01*
X2555218Y4171176D01*
X2582582Y4155378D01*
X2613102Y4147200D01*
X2644698D01*
X2675218Y4155378D01*
X2702582Y4171176D01*
X2724924Y4193518D01*
X2740722Y4220882D01*
X2748900Y4251402D01*
Y4282998D01*
X2740722Y4313518D01*
X2725433Y4340000D01*
X2727196Y4346656D01*
X2729699Y4352700D01*
X3449849D01*
X3469169Y4348857D01*
D02*
G37*
%LPC*%
G36*
X3479800Y4265692D02*
X3463951Y4259127D01*
X3449773Y4244949D01*
X3443208Y4229100D01*
X3479800D01*
Y4265692D01*
D02*
G37*
G36*
Y4203700D02*
X3443208D01*
X3449773Y4187851D01*
X3463951Y4173673D01*
X3479800Y4167108D01*
Y4203700D01*
D02*
G37*
G36*
X2730713Y4113294D02*
Y4076702D01*
X2767305D01*
X2760739Y4092551D01*
X2746562Y4106729D01*
X2730713Y4113294D01*
D02*
G37*
G36*
X2705313D02*
X2689463Y4106729D01*
X2675286Y4092551D01*
X2668721Y4076702D01*
X2705313D01*
Y4113294D01*
D02*
G37*
G36*
X2767305Y4051302D02*
X2730713D01*
Y4014710D01*
X2746562Y4021275D01*
X2760739Y4035452D01*
X2767305Y4051302D01*
D02*
G37*
G36*
X2705313D02*
X2668721D01*
X2675286Y4035452D01*
X2689463Y4021275D01*
X2705313Y4014710D01*
Y4051302D01*
D02*
G37*
G36*
X3323651Y4058200D02*
X3305749D01*
X3289210Y4051349D01*
X3276551Y4038690D01*
X3269700Y4022151D01*
Y4004249D01*
X3276551Y3987710D01*
X3289210Y3975051D01*
X3305749Y3968200D01*
X3323651D01*
X3340190Y3975051D01*
X3352849Y3987710D01*
X3359700Y4004249D01*
Y4022151D01*
X3352849Y4038690D01*
X3340190Y4051349D01*
X3323651Y4058200D01*
D02*
G37*
G36*
X3463351Y4032800D02*
X3445449D01*
X3428910Y4025949D01*
X3416251Y4013290D01*
X3409400Y3996751D01*
Y3978849D01*
X3416251Y3962310D01*
X3428910Y3949651D01*
X3445449Y3942800D01*
X3463351D01*
X3479890Y3949651D01*
X3492549Y3962310D01*
X3499400Y3978849D01*
Y3996751D01*
X3492549Y4013290D01*
X3479890Y4025949D01*
X3463351Y4032800D01*
D02*
G37*
G36*
X2612451Y3993192D02*
X2594549D01*
X2578010Y3986341D01*
X2565351Y3973682D01*
X2558500Y3957143D01*
Y3939241D01*
X2565351Y3922702D01*
X2578010Y3910043D01*
X2594549Y3903192D01*
X2612451D01*
X2628990Y3910043D01*
X2641649Y3922702D01*
X2648500Y3939241D01*
Y3957143D01*
X2641649Y3973682D01*
X2628990Y3986341D01*
X2612451Y3993192D01*
D02*
G37*
G36*
X2697088Y3910892D02*
Y3874300D01*
X2733680D01*
X2727115Y3890149D01*
X2712937Y3904327D01*
X2697088Y3910892D01*
D02*
G37*
G36*
X2671688D02*
X2655839Y3904327D01*
X2641661Y3890149D01*
X2635096Y3874300D01*
X2671688D01*
Y3910892D01*
D02*
G37*
G36*
X3238500Y3938100D02*
X3220598D01*
X3204059Y3931249D01*
X3191400Y3918590D01*
X3184549Y3902051D01*
Y3884149D01*
X3191400Y3867609D01*
X3204059Y3854951D01*
X3220598Y3848100D01*
X3238500D01*
X3255039Y3854951D01*
X3267698Y3867609D01*
X3274549Y3884149D01*
Y3902051D01*
X3267698Y3918590D01*
X3255039Y3931249D01*
X3238500Y3938100D01*
D02*
G37*
G36*
X2733680Y3848900D02*
X2697088D01*
Y3812308D01*
X2712937Y3818873D01*
X2727115Y3833051D01*
X2733680Y3848900D01*
D02*
G37*
G36*
X2671688D02*
X2635096D01*
X2641661Y3833051D01*
X2655839Y3818873D01*
X2671688Y3812308D01*
Y3848900D01*
D02*
G37*
G36*
X3098800Y3795792D02*
Y3759200D01*
X3135392D01*
X3128827Y3775049D01*
X3114649Y3789227D01*
X3098800Y3795792D01*
D02*
G37*
G36*
X3073400D02*
X3057551Y3789227D01*
X3043373Y3775049D01*
X3036808Y3759200D01*
X3073400D01*
Y3795792D01*
D02*
G37*
G36*
X3135392Y3733800D02*
X3098800D01*
Y3697208D01*
X3114649Y3703773D01*
X3128827Y3717951D01*
X3135392Y3733800D01*
D02*
G37*
G36*
X3073400D02*
X3036808D01*
X3043373Y3717951D01*
X3057551Y3703773D01*
X3073400Y3697208D01*
Y3733800D01*
D02*
G37*
G36*
X3222051Y3686600D02*
X3204149D01*
X3187610Y3679749D01*
X3174951Y3667090D01*
X3168100Y3650551D01*
Y3632649D01*
X3174951Y3616110D01*
X3187610Y3603451D01*
X3204149Y3596600D01*
X3222051D01*
X3238590Y3603451D01*
X3251249Y3616110D01*
X3258100Y3632649D01*
Y3650551D01*
X3251249Y3667090D01*
X3238590Y3679749D01*
X3222051Y3686600D01*
D02*
G37*
G36*
X2701351Y3677200D02*
X2683449D01*
X2666910Y3670349D01*
X2654251Y3657690D01*
X2647400Y3641151D01*
Y3623249D01*
X2654251Y3606710D01*
X2666910Y3594051D01*
X2683449Y3587200D01*
X2701351D01*
X2717890Y3594051D01*
X2730549Y3606710D01*
X2737400Y3623249D01*
Y3641151D01*
X2730549Y3657690D01*
X2717890Y3670349D01*
X2701351Y3677200D01*
D02*
G37*
G36*
X2625151Y3550200D02*
X2607249D01*
X2590710Y3543349D01*
X2578051Y3530690D01*
X2571200Y3514151D01*
Y3496249D01*
X2578051Y3479710D01*
X2590710Y3467051D01*
X2607249Y3460200D01*
X2625151D01*
X2641690Y3467051D01*
X2643885Y3469246D01*
X2656341Y3466768D01*
X2658580Y3461364D01*
X2671238Y3448705D01*
X2687778Y3441854D01*
X2705680D01*
X2722219Y3448705D01*
X2734878Y3461364D01*
X2741729Y3477903D01*
Y3495805D01*
X2734878Y3512345D01*
X2722219Y3525003D01*
X2705680Y3531854D01*
X2687778D01*
X2671238Y3525003D01*
X2669044Y3522809D01*
X2656588Y3525286D01*
X2654349Y3530690D01*
X2641690Y3543349D01*
X2625151Y3550200D01*
D02*
G37*
G36*
X3247451Y3385100D02*
X3229549D01*
X3213010Y3378249D01*
X3200351Y3365590D01*
X3193500Y3349051D01*
Y3331149D01*
X3200351Y3314610D01*
X3213010Y3301951D01*
X3229549Y3295100D01*
X3247451D01*
X3263990Y3301951D01*
X3276649Y3314610D01*
X3283500Y3331149D01*
Y3349051D01*
X3276649Y3365590D01*
X3263990Y3378249D01*
X3247451Y3385100D01*
D02*
G37*
G36*
X2743005Y3299759D02*
Y3263167D01*
X2779597D01*
X2773032Y3279016D01*
X2758855Y3293194D01*
X2743005Y3299759D01*
D02*
G37*
G36*
X2717605D02*
X2701756Y3293194D01*
X2687579Y3279016D01*
X2681013Y3263167D01*
X2717605D01*
Y3299759D01*
D02*
G37*
G36*
X3018851Y3334300D02*
X3000949D01*
X2984410Y3327449D01*
X2971751Y3314790D01*
X2964900Y3298251D01*
Y3280349D01*
X2971751Y3263810D01*
X2984410Y3251151D01*
X3000949Y3244300D01*
X3018851D01*
X3035390Y3251151D01*
X3048049Y3263810D01*
X3054900Y3280349D01*
Y3298251D01*
X3048049Y3314790D01*
X3035390Y3327449D01*
X3018851Y3334300D01*
D02*
G37*
G36*
X2779597Y3237767D02*
X2743005D01*
Y3201175D01*
X2758855Y3207740D01*
X2773032Y3221917D01*
X2779597Y3237767D01*
D02*
G37*
G36*
X2717605D02*
X2681013D01*
X2687579Y3221917D01*
X2701756Y3207740D01*
X2717605Y3201175D01*
Y3237767D01*
D02*
G37*
G36*
X3397112Y3270020D02*
X3379210D01*
X3362670Y3263169D01*
X3350012Y3250511D01*
X3343161Y3233971D01*
Y3216069D01*
X3350012Y3199530D01*
X3362670Y3186871D01*
X3379210Y3180020D01*
X3397112D01*
X3413651Y3186871D01*
X3426310Y3199530D01*
X3433161Y3216069D01*
Y3233971D01*
X3426310Y3250511D01*
X3413651Y3263169D01*
X3397112Y3270020D01*
D02*
G37*
G36*
X3107751Y3258100D02*
X3089849D01*
X3073310Y3251249D01*
X3060651Y3238590D01*
X3053800Y3222051D01*
Y3204149D01*
X3060651Y3187610D01*
X3073310Y3174951D01*
X3089849Y3168100D01*
X3107751D01*
X3124290Y3174951D01*
X3136949Y3187610D01*
X3143800Y3204149D01*
Y3222051D01*
X3136949Y3238590D01*
X3124290Y3251249D01*
X3107751Y3258100D01*
D02*
G37*
G36*
X2917251Y3029500D02*
X2899349D01*
X2882810Y3022649D01*
X2870960Y3010800D01*
X2863850Y3010371D01*
X2856740Y3010800D01*
X2844890Y3022649D01*
X2828351Y3029500D01*
X2810449D01*
X2793910Y3022649D01*
X2781251Y3009990D01*
X2774400Y2993451D01*
Y2975549D01*
X2781251Y2959010D01*
X2793910Y2946351D01*
X2810449Y2939500D01*
X2828351D01*
X2844890Y2946351D01*
X2856740Y2958200D01*
X2863850Y2958629D01*
X2870960Y2958200D01*
X2882810Y2946351D01*
X2899349Y2939500D01*
X2917251D01*
X2933790Y2946351D01*
X2946449Y2959010D01*
X2953300Y2975549D01*
Y2993451D01*
X2946449Y3009990D01*
X2933790Y3022649D01*
X2917251Y3029500D01*
D02*
G37*
G36*
X2650551Y3016800D02*
X2632649D01*
X2616110Y3009949D01*
X2603451Y2997290D01*
X2596600Y2980751D01*
Y2962849D01*
X2603451Y2946310D01*
X2616110Y2933651D01*
X2632649Y2926800D01*
X2650551D01*
X2667090Y2933651D01*
X2679749Y2946310D01*
X2686600Y2962849D01*
Y2980751D01*
X2679749Y2997290D01*
X2667090Y3009949D01*
X2650551Y3016800D01*
D02*
G37*
G36*
X3387151Y2915200D02*
X3369249D01*
X3352710Y2908349D01*
X3340051Y2895690D01*
X3334169Y2881490D01*
X3325753Y2878006D01*
X3320500Y2877198D01*
X3314839Y2882859D01*
X3298300Y2889709D01*
X3280398D01*
X3263859Y2882859D01*
X3251200Y2870200D01*
X3244349Y2853661D01*
Y2835759D01*
X3251200Y2819219D01*
X3263859Y2806561D01*
X3280398Y2799710D01*
X3298300D01*
X3314839Y2806561D01*
X3327498Y2819219D01*
X3333380Y2833420D01*
X3341796Y2836904D01*
X3347049Y2837712D01*
X3352710Y2832051D01*
X3369249Y2825200D01*
X3387151D01*
X3403690Y2832051D01*
X3416349Y2844710D01*
X3423200Y2861249D01*
Y2879151D01*
X3416349Y2895690D01*
X3403690Y2908349D01*
X3387151Y2915200D01*
D02*
G37*
G36*
X3120451Y2889800D02*
X3102549D01*
X3086010Y2882949D01*
X3073351Y2870290D01*
X3066500Y2853751D01*
Y2835849D01*
X3073351Y2819310D01*
X3086010Y2806651D01*
X3102549Y2799800D01*
X3120451D01*
X3136990Y2806651D01*
X3149649Y2819310D01*
X3156500Y2835849D01*
Y2853751D01*
X3149649Y2870290D01*
X3136990Y2882949D01*
X3120451Y2889800D01*
D02*
G37*
G36*
X2968051D02*
X2950149D01*
X2933610Y2882949D01*
X2920951Y2870290D01*
X2914100Y2853751D01*
Y2835849D01*
X2920951Y2819310D01*
X2933610Y2806651D01*
X2950149Y2799800D01*
X2968051D01*
X2984590Y2806651D01*
X2997249Y2819310D01*
X3004100Y2835849D01*
Y2853751D01*
X2997249Y2870290D01*
X2984590Y2882949D01*
X2968051Y2889800D01*
D02*
G37*
G36*
X3082945Y2764900D02*
X3063855D01*
X3045416Y2759959D01*
X3028884Y2750414D01*
X3017727Y2739258D01*
X3009900Y2737881D01*
X3002073Y2739258D01*
X2990916Y2750414D01*
X2974384Y2759959D01*
X2955945Y2764900D01*
X2936855D01*
X2918416Y2759959D01*
X2901884Y2750414D01*
X2890727Y2739258D01*
X2882900Y2737881D01*
X2875073Y2739258D01*
X2863916Y2750414D01*
X2847384Y2759959D01*
X2828945Y2764900D01*
X2809855D01*
X2791416Y2759959D01*
X2777600Y2751983D01*
X2764900Y2756677D01*
Y2764900D01*
X2619900D01*
Y2619900D01*
X2764900D01*
Y2628123D01*
X2777600Y2632817D01*
X2791416Y2624841D01*
X2809855Y2619900D01*
X2828945D01*
X2847384Y2624841D01*
X2863916Y2634386D01*
X2875073Y2645542D01*
X2882900Y2646919D01*
X2890727Y2645542D01*
X2901884Y2634386D01*
X2918416Y2624841D01*
X2936855Y2619900D01*
X2955945D01*
X2974384Y2624841D01*
X2990916Y2634386D01*
X3002073Y2645542D01*
X3009900Y2646919D01*
X3017727Y2645542D01*
X3028884Y2634386D01*
X3045416Y2624841D01*
X3063855Y2619900D01*
X3082945D01*
X3101384Y2624841D01*
X3117916Y2634386D01*
X3131414Y2647884D01*
X3140959Y2664416D01*
X3145900Y2682855D01*
Y2701945D01*
X3140959Y2720384D01*
X3131414Y2736916D01*
X3117916Y2750414D01*
X3101384Y2759959D01*
X3082945Y2764900D01*
D02*
G37*
%LPD*%
D23*
X3454400Y2641600D02*
D03*
X2628900Y4267200D02*
D03*
D24*
X3073400Y2692400D02*
D03*
X2946400D02*
D03*
X2819400D02*
D03*
D25*
X2692400D02*
D03*
D26*
X3454400Y3987800D02*
D03*
X3492500Y4216400D02*
D03*
X2718013Y4064002D02*
D03*
X3314700Y4013200D02*
D03*
X3289349Y2844710D02*
D03*
X2603500Y3948192D02*
D03*
X2684388Y3861600D02*
D03*
X3086100Y3746500D02*
D03*
X3229549Y3893100D02*
D03*
X3213100Y3641600D02*
D03*
X3238500Y3340100D02*
D03*
X3388161Y3225020D02*
D03*
X2692400Y3632200D02*
D03*
X2696729Y3486854D02*
D03*
X3009900Y3289300D02*
D03*
X2616200Y3505200D02*
D03*
X2641600Y2971800D02*
D03*
X2908300Y2984500D02*
D03*
X2819400D02*
D03*
X2730305Y3250467D02*
D03*
X3098800Y3213100D02*
D03*
X3378200Y2870200D02*
D03*
X3111500Y2844800D02*
D03*
X2959100D02*
D03*
%TF.MD5,5746ec4a2dbe49f775cb38cc166cedb5*%
M02*
