%TF.GenerationSoftware,Altium Limited,Altium Designer,24.10.1 (45)*%
G04 Layer_Color=128*
%FSLAX45Y45*%
%MOMM*%
%TF.SameCoordinates,4467BDBC-AEE5-4BB1-B835-3B9CE31773A1*%
%TF.FilePolarity,Positive*%
%TF.FileFunction,Paste,Bot*%
%TF.Part,Single*%
G01*
G75*
%TA.AperFunction,SMDPad,CuDef*%
%ADD14R,0.52000X0.52000*%
%ADD21R,0.47247X0.46818*%
%ADD27R,0.65000X1.10000*%
%ADD28C,1.50000*%
%ADD29R,1.50000X1.30000*%
%ADD30R,0.60000X1.20000*%
D14*
X3243349Y2718710D02*
D03*
Y2798710D02*
D03*
D21*
X2641600Y3337985D02*
D03*
Y3418415D02*
D03*
X3009900Y3337985D02*
D03*
Y3418415D02*
D03*
D27*
X3321800Y3311300D02*
D03*
X3129800D02*
D03*
X3225800Y3521300D02*
D03*
D28*
X3416300Y3035300D02*
D03*
X3403600Y4025900D02*
D03*
Y3619500D02*
D03*
Y3835400D02*
D03*
D29*
X3196800Y3751600D02*
D03*
X2746800D02*
D03*
X3196800Y4101600D02*
D03*
D30*
X2648200Y3209100D02*
D03*
X2838200D02*
D03*
X2743200Y2959100D02*
D03*
X3016500Y3196400D02*
D03*
X3206500D02*
D03*
X3111500Y2946400D02*
D03*
%TF.MD5,69c8291b40ebb3b3b445db96724f22ad*%
M02*
