%TF.GenerationSoftware,Altium Limited,Altium Designer,24.10.1 (45)*%
G04 Layer_Color=16711935*
%FSLAX45Y45*%
%MOMM*%
%TF.SameCoordinates,4467BDBC-AEE5-4BB1-B835-3B9CE31773A1*%
%TF.FilePolarity,Negative*%
%TF.FileFunction,Soldermask,Bot*%
%TF.Part,Single*%
G01*
G75*
%TA.AperFunction,SMDPad,CuDef*%
%ADD14R,0.52000X0.52000*%
%ADD21R,0.47247X0.46818*%
%TA.AperFunction,ViaPad*%
%ADD40C,2.20320*%
%TA.AperFunction,ComponentPad*%
%ADD41C,1.25320*%
%ADD42R,1.25320X1.25320*%
%TA.AperFunction,ViaPad*%
%ADD43C,0.70320*%
%TA.AperFunction,SMDPad,CuDef*%
%ADD44R,0.85320X1.30320*%
%ADD45C,1.70320*%
%ADD46R,1.70320X1.50320*%
%ADD47R,0.80320X1.40320*%
D14*
X3243349Y2718710D02*
D03*
Y2798710D02*
D03*
D21*
X2641600Y3337985D02*
D03*
Y3418415D02*
D03*
X3009900Y3337985D02*
D03*
Y3418415D02*
D03*
D40*
X3454400Y2641600D02*
D03*
X2628900Y4267200D02*
D03*
D41*
X3073400Y2692400D02*
D03*
X2946400D02*
D03*
X2819400D02*
D03*
D42*
X2692400D02*
D03*
D43*
X3454400Y3987800D02*
D03*
X3492500Y4216400D02*
D03*
X2718013Y4064002D02*
D03*
X3314700Y4013200D02*
D03*
X3289349Y2844710D02*
D03*
X2603500Y3948192D02*
D03*
X2684388Y3861600D02*
D03*
X3086100Y3746500D02*
D03*
X3229549Y3893100D02*
D03*
X3213100Y3641600D02*
D03*
X3238500Y3340100D02*
D03*
X3388161Y3225020D02*
D03*
X2692400Y3632200D02*
D03*
X2696729Y3486854D02*
D03*
X3009900Y3289300D02*
D03*
X2616200Y3505200D02*
D03*
X2641600Y2971800D02*
D03*
X2908300Y2984500D02*
D03*
X2819400D02*
D03*
X2730305Y3250467D02*
D03*
X3098800Y3213100D02*
D03*
X3378200Y2870200D02*
D03*
X3111500Y2844800D02*
D03*
X2959100D02*
D03*
D44*
X3321800Y3311300D02*
D03*
X3129800D02*
D03*
X3225800Y3521300D02*
D03*
D45*
X3416300Y3035300D02*
D03*
X3403600Y4025900D02*
D03*
Y3619500D02*
D03*
Y3835400D02*
D03*
D46*
X3196800Y3751600D02*
D03*
X2746800D02*
D03*
X3196800Y4101600D02*
D03*
D47*
X2648200Y3209100D02*
D03*
X2838200D02*
D03*
X2743200Y2959100D02*
D03*
X3016500Y3196400D02*
D03*
X3206500D02*
D03*
X3111500Y2946400D02*
D03*
%TF.MD5,850c726360205ad1c38fae4070e3048c*%
M02*
